<svg width="30" height="31" viewBox="0 0 30 31" fill="none" xmlns="http://www.w3.org/2000/svg">
<path d="M30 15.9443C30 24.2286 23.2843 30.9443 15 30.9443C6.71573 30.9443 0 24.2286 0 15.9443C0 7.66006 6.71573 0.944336 15 0.944336C23.2843 0.944336 30 7.66006 30 15.9443Z" fill="#1778F2"/>
<path d="M22.5538 7.96749C22.3166 7.7701 22.0302 7.64073 21.7253 7.59316C21.4203 7.54558 21.1082 7.58158 20.8221 7.69731L5.88797 13.7268C5.56859 13.8582 5.29673 14.0836 5.10847 14.3731C4.9202 14.6626 4.82444 15.0026 4.83389 15.3478C4.84334 15.693 4.95755 16.0272 5.16137 16.306C5.36518 16.5848 5.64897 16.795 5.97505 16.9087L8.99588 17.9594L10.6796 23.5274C10.7025 23.6018 10.7357 23.6726 10.7783 23.7377C10.7847 23.7477 10.7939 23.7552 10.8007 23.7649C10.8499 23.8335 10.9093 23.8941 10.9769 23.9447C10.9961 23.9593 11.0145 23.9731 11.0351 23.9861C11.1142 24.0386 11.2018 24.0769 11.294 24.0995L11.3039 24.1003L11.3095 24.1027C11.3649 24.114 11.4214 24.1197 11.478 24.1198C11.4834 24.1198 11.4882 24.1172 11.4936 24.1171C11.579 24.1156 11.6636 24.1009 11.7445 24.0735C11.7633 24.0671 11.7795 24.0564 11.7977 24.0487C11.858 24.0237 11.9152 23.9916 11.968 23.9532C12.0102 23.9176 12.0525 23.882 12.0948 23.8464L14.3466 21.3602L17.7052 23.9619C18.0009 24.1921 18.3648 24.3173 18.7395 24.3176C19.1322 24.3171 19.5127 24.1816 19.8173 23.9339C20.122 23.6861 20.3322 23.3412 20.4127 22.9569L23.1316 9.60974C23.1932 9.30934 23.172 8.99784 23.0702 8.70857C22.9685 8.41929 22.79 8.16313 22.5538 7.96749ZM11.8084 18.2247C11.6928 18.3397 11.6139 18.4864 11.5813 18.6462L11.3234 19.8995L10.67 17.7386L14.0577 15.9745L11.8084 18.2247ZM18.7265 22.6444L14.7576 19.5698C14.5916 19.4415 14.3833 19.3805 14.1742 19.3989C13.9652 19.4173 13.7708 19.5138 13.6297 19.6691L12.9085 20.4651L13.1634 19.2264L19.0659 13.3239C19.2067 13.1832 19.2926 12.9967 19.3078 12.7982C19.3231 12.5997 19.2667 12.4022 19.1489 12.2417C19.0312 12.0811 18.8598 11.968 18.6659 11.9229C18.4719 11.8778 18.2683 11.9037 18.0917 11.9958L9.62068 16.4063L6.51704 15.2706L21.4991 9.27688L18.7265 22.6444Z" fill="white"/>
</svg>
