<svg width="25" height="26" viewBox="0 0 25 26" fill="none" xmlns="http://www.w3.org/2000/svg">
<path d="M0.625496 8.81747L11.8755 15.3175C12.0655 15.4272 12.2811 15.4849 12.5005 15.4849C12.7199 15.4849 12.9355 15.4272 13.1255 15.3175L24.3755 8.81747C24.5644 8.7084 24.7215 8.55179 24.8312 8.3632C24.9408 8.17461 24.9992 7.96061 25.0005 7.74247C25.0014 7.52221 24.944 7.30562 24.8343 7.11465C24.7245 6.92368 24.5663 6.7651 24.3755 6.65497L13.1255 0.167468C12.9355 0.0577579 12.7199 0 12.5005 0C12.2811 0 12.0655 0.0577579 11.8755 0.167468L0.625496 6.65497C0.43474 6.7651 0.276473 6.92368 0.166719 7.11465C0.0569645 7.30562 -0.00037857 7.52221 0.000495889 7.74247C0.0018126 7.96061 0.0601945 8.17461 0.169839 8.3632C0.279484 8.55179 0.436574 8.7084 0.625496 8.81747ZM12.5005 2.74247L21.2505 7.74247L12.5005 12.7425L3.7505 7.74247L12.5005 2.74247ZM23.1255 11.705L12.5005 17.7425L1.8755 11.655C1.73283 11.5723 1.57522 11.5187 1.41175 11.4972C1.24827 11.4758 1.08217 11.4868 0.922991 11.5298C0.763816 11.5728 0.614718 11.6469 0.484284 11.7477C0.353851 11.8486 0.244658 11.9742 0.162996 12.1175C3.04133e-05 12.4045 -0.0428024 12.7443 0.0438437 13.0628C0.13049 13.3813 0.339581 13.6526 0.625496 13.8175L11.8755 20.3175C12.0655 20.4272 12.2811 20.4849 12.5005 20.4849C12.7199 20.4849 12.9355 20.4272 13.1255 20.3175L24.3755 13.8175C24.6614 13.6526 24.8705 13.3813 24.9571 13.0628C25.0438 12.7443 25.001 12.4045 24.838 12.1175C24.7563 11.9742 24.6471 11.8486 24.5167 11.7477C24.3863 11.6469 24.2372 11.5728 24.078 11.5298C23.9188 11.4868 23.7527 11.4758 23.5892 11.4972C23.4258 11.5187 23.2682 11.5723 23.1255 11.655V11.705ZM23.1255 16.705L12.5005 22.7425L1.8755 16.655C1.73283 16.5723 1.57522 16.5187 1.41175 16.4972C1.24827 16.4758 1.08217 16.4868 0.922991 16.5298C0.763816 16.5728 0.614718 16.6469 0.484284 16.7477C0.353851 16.8486 0.244658 16.9742 0.162996 17.1175C3.04133e-05 17.4045 -0.0428024 17.7443 0.0438437 18.0628C0.13049 18.3813 0.339581 18.6526 0.625496 18.8175L11.8755 25.3175C12.0655 25.4272 12.2811 25.4849 12.5005 25.4849C12.7199 25.4849 12.9355 25.4272 13.1255 25.3175L24.3755 18.8175C24.6614 18.6526 24.8705 18.3813 24.9571 18.0628C25.0438 17.7443 25.001 17.4045 24.838 17.1175C24.7563 16.9742 24.6471 16.8486 24.5167 16.7477C24.3863 16.6469 24.2372 16.5728 24.078 16.5298C23.9188 16.4868 23.7527 16.4758 23.5892 16.4972C23.4258 16.5187 23.2682 16.5723 23.1255 16.655V16.705Z" fill="black"/>
</svg>
