<svg width="64" height="26" viewBox="0 0 64 26" fill="none" xmlns="http://www.w3.org/2000/svg">
<path d="M0.59255 12.9884C0.553175 12.9622 0.54005 12.9294 0.553175 12.89C0.946925 12.1944 1.28161 11.5841 1.55724 11.0591C1.24224 10.7572 1.08474 10.4225 1.08474 10.055C1.08474 9.32 1.75411 8.6375 3.09286 8.0075C4.24786 5.56625 4.77286 3.81406 4.66786 2.75094C4.26099 2.84281 3.90005 2.915 3.58505 2.9675C3.28318 3.02 3.0338 3.04625 2.83693 3.04625C2.44318 3.04625 2.12161 2.97406 1.87224 2.82969C1.66224 2.69844 1.55724 2.51469 1.55724 2.27844C1.55724 2.19969 1.57693 2.11437 1.6163 2.0225C1.70818 1.73375 1.90505 1.4975 2.20693 1.31375C2.5088 1.13 2.84349 1.03812 3.21099 1.03812C4.03786 1.03812 4.57599 1.43187 4.82536 2.21937L5.90818 2.0225L7.48318 1.76656C7.8638 1.71406 8.21161 1.67469 8.52661 1.64844C8.84161 1.62219 9.13036 1.60906 9.39286 1.60906C9.98349 1.60906 10.4429 1.70094 10.771 1.88469C11.1647 2.08156 11.3616 2.37031 11.3616 2.75094C11.3616 3.22344 11.0335 3.74844 10.3772 4.32594C9.62911 4.96906 8.69068 5.48094 7.56193 5.86156H7.69974C7.80474 5.84844 7.90318 5.84187 7.99505 5.84187C8.10005 5.84187 8.19849 5.84187 8.29036 5.84187C9.19599 5.84187 9.95724 6.03219 10.5741 6.41281C11.2304 6.83281 11.5585 7.35781 11.5585 7.98781C11.5585 8.53906 11.3157 9.09687 10.8301 9.66125C10.2919 10.3306 9.45849 10.895 8.32974 11.3544C7.14849 11.8138 5.86224 12.0434 4.47099 12.0434C3.31599 12.0434 2.39068 11.7547 1.69505 11.1772L0.690988 12.9688C0.677863 13.0081 0.64505 13.0147 0.59255 12.9884ZM2.93536 2.45562C3.11911 2.4425 3.34224 2.42281 3.60474 2.39656C3.88036 2.35719 4.20193 2.31125 4.56943 2.25875C4.33318 1.53687 3.8738 1.17594 3.1913 1.17594C2.62693 1.17594 2.23974 1.41875 2.02974 1.90437C1.99036 1.95687 1.97068 2.01594 1.97068 2.08156C1.97068 2.37031 2.29224 2.495 2.93536 2.45562ZM4.25443 11.7678C5.58005 11.7678 6.80068 11.5316 7.9163 11.0591C8.9138 10.6259 9.68161 10.0812 10.2197 9.425C10.666 8.9 10.8891 8.40781 10.8891 7.94844C10.8891 7.38406 10.5741 6.93781 9.94411 6.60969C9.34036 6.30781 8.63161 6.15687 7.81786 6.15687C7.33224 6.15687 6.85974 6.21594 6.40036 6.33406C6.30849 6.34719 6.26255 6.31437 6.26255 6.23562C6.26255 6.13062 6.32161 6.0125 6.43974 5.88125C6.55786 5.73687 6.70224 5.65812 6.87286 5.645C6.91224 5.63187 6.95161 5.62531 6.99099 5.62531C7.03036 5.62531 7.06318 5.62531 7.08943 5.62531C7.15505 5.62531 7.22724 5.63844 7.30599 5.66469C8.19849 5.37594 9.01224 4.86406 9.74724 4.12906C10.3379 3.55156 10.6332 3.06594 10.6332 2.67219C10.6332 2.17344 10.1147 1.92406 9.07786 1.92406C8.78911 1.92406 8.46755 1.94375 8.11318 1.98312C7.77193 2.0225 7.39786 2.08812 6.99099 2.18L4.94349 2.67219C4.95661 2.73781 4.96318 2.81 4.96318 2.88875C4.96318 2.9675 4.96318 3.04625 4.96318 3.125C4.96318 3.25625 4.95661 3.40062 4.94349 3.55812C4.93036 3.7025 4.91068 3.86 4.88443 4.03062C4.79255 4.52937 4.62193 5.10031 4.37255 5.74344C4.1363 6.38656 3.82786 7.09531 3.44724 7.86969C3.53911 7.84344 3.63099 7.81719 3.72286 7.79094C3.82786 7.75156 3.93286 7.72531 4.03786 7.71219C4.49724 6.29469 5.33068 4.73937 6.53818 3.04625C6.68255 2.8625 6.88599 2.77062 7.14849 2.77062C7.35849 2.77062 7.46349 2.81656 7.46349 2.90844C7.46349 2.94781 7.43724 2.99375 7.38474 3.04625C7.10911 3.32187 6.68255 3.9125 6.10505 4.81812C5.42255 5.86812 4.91068 6.80656 4.56943 7.63344C4.77943 7.60719 4.98286 7.5875 5.17974 7.57437C5.38974 7.54812 5.59974 7.535 5.80974 7.535C7.25349 7.535 8.13286 7.79094 8.44786 8.30281C8.48724 8.38156 8.46755 8.42094 8.3888 8.42094C8.3363 8.42094 8.27068 8.40781 8.19193 8.38156C7.69318 8.05344 6.85974 7.88937 5.69161 7.88937C5.46849 7.88937 5.25193 7.89594 5.04193 7.90906C4.83193 7.92219 4.62849 7.94187 4.43161 7.96812C4.33974 8.20437 4.27411 8.42094 4.23474 8.61781C4.20849 8.80156 4.19536 8.96562 4.19536 9.11C4.19536 9.38562 4.25443 9.61531 4.37255 9.79906C4.51693 10.0353 4.70068 10.1534 4.9238 10.1534L5.06161 10.1337C5.16661 10.1075 5.21911 10.1403 5.21911 10.2322C5.21911 10.2584 5.1863 10.2847 5.12068 10.3109C4.70068 10.3372 4.37255 10.2322 4.1363 9.99594C3.91318 9.74656 3.80161 9.41187 3.80161 8.99187C3.80161 8.86062 3.80818 8.72281 3.8213 8.57844C3.84755 8.42094 3.88693 8.25687 3.93943 8.08625C3.80818 8.1125 3.68349 8.15187 3.56536 8.20437C3.44724 8.24375 3.32255 8.29625 3.1913 8.36187C3.0338 8.67687 2.84349 9.03781 2.62036 9.44469C2.41036 9.83844 2.17411 10.2847 1.91161 10.7834C2.33161 11.4397 3.11255 11.7678 4.25443 11.7678ZM1.81318 10.5866C2.01005 10.2191 2.1938 9.87125 2.36443 9.54312C2.53505 9.20187 2.69255 8.88031 2.83693 8.57844C2.0888 9.05094 1.71474 9.56937 1.71474 10.1337C1.71474 10.2781 1.74755 10.4291 1.81318 10.5866Z" fill="#FF715B"/>
<path d="M14.2201 23.6281C14.0495 23.6281 13.8855 23.5625 13.728 23.4313C13.5705 23.3 13.4983 23.1622 13.5114 23.0178C13.5376 22.7291 13.5836 22.4206 13.6492 22.0925C13.7148 21.7644 13.8001 21.4166 13.9051 21.0491C13.8001 21.0228 13.6951 20.99 13.5901 20.9506C13.4983 20.8981 13.3998 20.8456 13.2948 20.7931C12.8617 22.0138 12.6255 22.8538 12.5861 23.3131C12.5861 23.3525 12.5795 23.3722 12.5664 23.3722C12.527 23.3722 12.4942 23.3525 12.468 23.3131C12.4548 23.2869 12.4548 23.2672 12.468 23.2541C12.5336 22.7028 12.7501 21.8562 13.1176 20.7144C12.1726 20.1762 11.4245 19.4019 10.8733 18.3912C10.3483 17.4331 10.0858 16.3831 10.0858 15.2412C8.79952 16.4225 8.1564 17.4922 8.1564 18.4503C8.1564 19.0278 8.42546 19.4741 8.96358 19.7891C9.09483 19.8678 9.16046 19.9334 9.16046 19.9859C9.16046 20.0384 9.12765 20.0647 9.06202 20.0647C8.9964 20.0647 8.91108 20.0319 8.80608 19.9662C8.09733 19.3887 7.74296 18.7325 7.74296 17.9975C7.74296 17.3937 7.97921 16.7703 8.45171 16.1272C8.87171 15.5234 9.42952 14.9722 10.1251 14.4734C10.1383 14.3159 10.158 14.165 10.1842 14.0206C10.2105 13.8631 10.2433 13.7122 10.2826 13.5678C10.4664 12.9509 10.742 12.4259 11.1095 11.9928C11.5426 11.4941 12.048 11.2447 12.6255 11.2447C13.0455 11.2447 13.413 11.3825 13.728 11.6581C14.0823 11.9731 14.3383 12.4128 14.4958 12.9772C15.6639 13.2003 16.248 14.0337 16.248 15.4775C16.248 16.1862 16.0773 17.0328 15.7361 18.0172C15.6048 18.3453 15.4473 18.7587 15.2636 19.2575C15.093 19.7431 14.8961 20.3206 14.673 20.99C15.198 21.0031 15.7164 20.8653 16.2283 20.5766C16.6876 20.3141 16.9567 20.0056 17.0355 19.6513C17.0617 19.625 17.0814 19.6119 17.0945 19.6119C17.1864 19.6119 17.2192 19.6381 17.193 19.6906C17.1011 20.0712 16.7992 20.4059 16.2873 20.6947C15.7623 21.0228 15.2045 21.1737 14.6139 21.1475C14.3514 21.9744 14.2201 22.5256 14.2201 22.8013C14.2201 22.9588 14.2661 23.0375 14.358 23.0375C14.7517 23.0375 15.5064 22.5781 16.622 21.6594C17.0683 21.2919 17.462 20.9506 17.8033 20.6356C18.1445 20.3206 18.4267 20.0384 18.6498 19.7891C19.083 19.3297 19.4701 18.8637 19.8114 18.3912C20.1658 17.9187 20.4742 17.4462 20.7367 16.9737C21.3798 15.8187 21.7014 14.7753 21.7014 13.8434C21.7014 13.0297 21.4455 12.3275 20.9336 11.7369C20.8286 11.5925 20.7761 11.4941 20.7761 11.4416C20.7761 11.4022 20.7892 11.3825 20.8155 11.3825C20.9073 11.3825 21.0255 11.4481 21.1698 11.5794C21.8655 12.1962 22.2133 12.9641 22.2133 13.8828C22.2133 14.8409 21.8523 15.9172 21.1305 17.1116C20.5661 18.0697 19.8114 19.0409 18.8664 20.0253C16.5695 22.4272 15.0208 23.6281 14.2201 23.6281ZM10.4205 14.2569L10.5386 14.1978C11.8905 13.2791 13.1045 12.8591 14.1808 12.9378C14.0364 12.4653 13.8198 12.1044 13.5311 11.855C13.2555 11.6056 12.947 11.4809 12.6058 11.4809C12.1201 11.4809 11.6936 11.6844 11.3261 12.0912C10.9717 12.4587 10.7158 12.9509 10.5583 13.5678C10.532 13.6728 10.5058 13.7844 10.4795 13.9025C10.4664 14.0206 10.4467 14.1387 10.4205 14.2569ZM13.1964 20.5175L13.2948 20.2222C14.0298 18.0828 14.3973 16.2256 14.3973 14.6506C14.3973 14.0994 14.358 13.64 14.2792 13.2725C14.2267 13.2594 14.1742 13.2528 14.1217 13.2528C14.0692 13.2397 14.0167 13.2331 13.9642 13.2331C12.9405 13.2331 11.7461 13.8106 10.3811 14.9656C10.3811 16.055 10.6305 17.1116 11.1292 18.1353C11.6542 19.1853 12.3433 19.9794 13.1964 20.5175ZM13.9642 20.8719C14.2005 20.1631 14.5351 19.1197 14.9683 17.7416C15.2833 16.7178 15.4408 15.8581 15.4408 15.1625C15.4408 14.2044 15.152 13.6072 14.5745 13.3709C14.6008 13.5416 14.6205 13.7253 14.6336 13.9222C14.6598 14.1191 14.673 14.3422 14.673 14.5916C14.673 16.1272 14.2792 18.0106 13.4917 20.2419L13.3539 20.6159C13.4589 20.6684 13.5573 20.7209 13.6492 20.7734C13.7542 20.8128 13.8592 20.8456 13.9642 20.8719Z" fill="#FF715B"/>
<path d="M19.7538 11.7987C19.6338 12.0687 19.3938 12.2038 19.0338 12.2038C18.6738 12.2038 18.385 12.11 18.1675 11.9225C17.9575 11.735 17.785 11.4237 17.65 10.9887C17.5225 10.5537 17.4138 9.97625 17.3238 9.25625H14.0275C13.645 10.1187 13.4538 10.7862 13.4538 11.2587C13.4538 11.4762 13.4988 11.6562 13.5888 11.7987C13.4088 12.0687 13.15 12.2038 12.8125 12.2038C12.475 12.2038 12.3063 12.0162 12.3063 11.6412C12.3063 11.4312 12.37 11.1237 12.4975 10.7188C12.6325 10.3062 13.1163 9.2375 13.9488 7.5125C14.7813 5.78 15.2988 4.60625 15.5013 3.99125C15.7113 3.36875 15.8163 2.9675 15.8163 2.7875C15.8163 2.6075 15.805 2.4725 15.7825 2.3825C16.03 2.21 16.3 2.12375 16.5925 2.12375C16.885 2.12375 17.1175 2.19875 17.29 2.34875C17.47 2.49125 17.6238 2.7725 17.7513 3.1925C17.8863 3.6125 18.0363 4.72625 18.2013 6.53375C18.3738 8.34125 18.5688 9.62 18.7863 10.37C18.9438 10.925 19.2663 11.4012 19.7538 11.7987ZM16.5925 3.83375C16.42 4.23875 16.0638 4.98875 15.5238 6.08375C14.9838 7.17875 14.5975 7.98125 14.365 8.49125H17.245C17.2075 8.01875 17.1438 7.40375 17.0538 6.64625C16.9713 5.88125 16.915 5.3975 16.885 5.195C16.795 4.6625 16.6975 4.20875 16.5925 3.83375ZM26.8213 4.34C26.8213 5.69 25.9063 6.78125 24.0763 7.61375C24.1738 7.80875 24.3163 8.10125 24.5038 8.49125C24.6913 8.87375 24.8338 9.15875 24.9313 9.34625C25.0288 9.53375 25.16 9.76625 25.325 10.0437C25.49 10.3212 25.6363 10.5275 25.7638 10.6625C26.1088 11.03 26.4575 11.24 26.81 11.2925C26.7575 11.6375 26.6375 11.8812 26.45 12.0237C26.27 12.1663 26.0938 12.2375 25.9213 12.2375C25.5388 12.2375 25.1825 11.9862 24.8525 11.4837C24.6575 11.2062 24.0688 10.0437 23.0863 7.99625C22.9588 8.04125 22.64 8.13125 22.13 8.26625C22.025 9.03875 21.9725 9.74375 21.9725 10.3812C21.9725 11.0187 22.115 11.4912 22.4 11.7987C22.1675 12.0687 21.9088 12.2038 21.6238 12.2038C21.0388 12.2038 20.7463 11.7088 20.7463 10.7188C20.7463 10.3062 20.8888 9.17 21.1738 7.31C21.4588 5.45 21.6013 4.2575 21.6013 3.7325C21.6013 3.2 21.545 2.7575 21.4325 2.405C22.445 2.2175 23.2813 2.12375 23.9413 2.12375C25.8613 2.12375 26.8213 2.8625 26.8213 4.34ZM25.64 4.565C25.64 3.9575 25.46 3.515 25.1 3.2375C24.74 2.9525 24.2638 2.81 23.6713 2.81C23.4088 2.81 23.1425 2.8325 22.8725 2.8775C22.8725 3.2975 22.8238 3.81125 22.7263 4.41875C22.6138 5.16125 22.4525 6.185 22.2425 7.49C23.135 7.31 23.9038 7.0025 24.5488 6.5675C24.8863 6.335 25.1525 6.05 25.3475 5.7125C25.5425 5.3675 25.64 4.985 25.64 4.565ZM29.3896 2.12375C29.6746 2.12375 29.8809 2.2175 30.0084 2.405C30.1359 2.585 30.1996 2.89625 30.1996 3.33875C30.1996 3.78125 30.0384 4.955 29.7159 6.86C29.4009 8.7575 29.2434 10.0925 29.2434 10.865C29.2434 11.015 29.2471 11.1275 29.2546 11.2025C29.6821 11.225 30.1659 11.2362 30.7059 11.2362C32.1009 11.2362 32.9746 11.1387 33.3271 10.9437C33.3046 11.2437 33.2559 11.4837 33.1809 11.6637C33.1059 11.8437 32.9821 11.975 32.8096 12.0575C32.6446 12.14 32.4796 12.1888 32.3146 12.2038C32.1571 12.2263 31.9021 12.2375 31.5496 12.2375C31.1971 12.2375 30.4846 12.1588 29.4121 12.0012C29.2096 12.1437 28.9996 12.215 28.7821 12.215C28.2421 12.215 27.9721 11.8512 27.9721 11.1237C27.9721 10.6437 28.1259 9.51125 28.4334 7.72625C28.7484 5.94125 28.9059 4.685 28.9059 3.9575C28.9059 3.2225 28.8271 2.6975 28.6696 2.3825C28.8721 2.21 29.1121 2.12375 29.3896 2.12375ZM40.8255 11.7987C40.7055 12.0687 40.4655 12.2038 40.1055 12.2038C39.7455 12.2038 39.4568 12.11 39.2393 11.9225C39.0293 11.735 38.8568 11.4237 38.7218 10.9887C38.5943 10.5537 38.4855 9.97625 38.3955 9.25625H35.0993C34.7168 10.1187 34.5255 10.7862 34.5255 11.2587C34.5255 11.4762 34.5705 11.6562 34.6605 11.7987C34.4805 12.0687 34.2218 12.2038 33.8843 12.2038C33.5468 12.2038 33.378 12.0162 33.378 11.6412C33.378 11.4312 33.4418 11.1237 33.5693 10.7188C33.7043 10.3062 34.188 9.2375 35.0205 7.5125C35.853 5.78 36.3705 4.60625 36.573 3.99125C36.783 3.36875 36.888 2.9675 36.888 2.7875C36.888 2.6075 36.8768 2.4725 36.8543 2.3825C37.1018 2.21 37.3718 2.12375 37.6643 2.12375C37.9568 2.12375 38.1893 2.19875 38.3618 2.34875C38.5418 2.49125 38.6955 2.7725 38.823 3.1925C38.958 3.6125 39.108 4.72625 39.273 6.53375C39.4455 8.34125 39.6405 9.62 39.858 10.37C40.0155 10.925 40.338 11.4012 40.8255 11.7987ZM37.6643 3.83375C37.4918 4.23875 37.1355 4.98875 36.5955 6.08375C36.0555 7.17875 35.6693 7.98125 35.4368 8.49125H38.3168C38.2793 8.01875 38.2155 7.40375 38.1255 6.64625C38.043 5.88125 37.9868 5.3975 37.9568 5.195C37.8668 4.6625 37.7693 4.20875 37.6643 3.83375ZM46.2281 4.30625C46.0781 3.93125 45.8268 3.6125 45.4743 3.35C45.1218 3.0875 44.7281 2.95625 44.2931 2.95625C43.8656 2.95625 43.5131 3.0875 43.2356 3.35C42.9581 3.605 42.8193 3.965 42.8193 4.43C42.8193 4.64 42.8343 4.8125 42.8643 4.9475C42.9018 5.0825 42.9918 5.2325 43.1343 5.3975C43.2843 5.555 43.4268 5.69 43.5618 5.8025C43.7043 5.915 43.9631 6.12125 44.3381 6.42125C44.7131 6.72125 45.0956 7.04 45.4856 7.3775C45.8831 7.7075 46.1868 8.04875 46.3968 8.40125C46.6068 8.75375 46.7118 9.20375 46.7118 9.75125C46.7118 10.4712 46.4231 11.0787 45.8456 11.5737C45.2756 12.0687 44.5481 12.3163 43.6631 12.3163C42.9731 12.3163 42.3693 12.1813 41.8518 11.9112C41.3343 11.6337 41.0756 11.2437 41.0756 10.7412C41.0756 10.5237 41.1243 10.3287 41.2218 10.1562C41.3193 9.98375 41.4618 9.78875 41.6493 9.57125C41.9793 10.9062 42.7481 11.5737 43.9556 11.5737C44.3906 11.5737 44.7731 11.45 45.1031 11.2025C45.4331 10.955 45.5981 10.5875 45.5981 10.1C45.5981 9.8225 45.5643 9.6125 45.4968 9.47C45.4293 9.32 45.3731 9.20375 45.3281 9.12125C45.2906 9.03875 45.2193 8.94125 45.1143 8.82875C45.0093 8.70875 44.9231 8.615 44.8556 8.5475C44.7881 8.4725 44.6718 8.3675 44.5068 8.2325C44.3418 8.09 44.2106 7.98125 44.1131 7.90625C44.0231 7.82375 43.8656 7.69625 43.6406 7.52375C43.4156 7.34375 43.2393 7.20125 43.1118 7.09625C42.6768 6.74375 42.3431 6.39125 42.1106 6.03875C41.8856 5.68625 41.7731 5.2625 41.7731 4.7675C41.7731 3.935 42.0543 3.28625 42.6168 2.82125C43.1793 2.35625 43.9143 2.12375 44.8218 2.12375C45.3618 2.12375 45.8156 2.22875 46.1831 2.43875C46.5506 2.64875 46.7343 2.9375 46.7343 3.305C46.7343 3.6725 46.5656 4.00625 46.2281 4.30625Z" fill="black"/>
<path d="M29.4625 17.8962C29.4625 16.7187 29.2413 15.8187 28.7988 15.1962C28.3638 14.5737 27.7638 14.2625 26.9988 14.2625C26.6088 14.2625 26.26 14.39 25.9525 14.645C25.645 14.8925 25.4013 15.2 25.2213 15.5675C25.0413 15.9275 24.8913 16.34 24.7713 16.805C24.5688 17.5775 24.4675 18.3425 24.4675 19.1C24.4675 20.2775 24.685 21.1775 25.12 21.8C25.5625 22.4225 26.1663 22.7337 26.9313 22.7337C27.3213 22.7337 27.67 22.61 27.9775 22.3625C28.285 22.1075 28.5288 21.8 28.7088 21.44C28.8888 21.0725 29.0388 20.66 29.1588 20.2025C29.3613 19.4225 29.4625 18.6537 29.4625 17.8962ZM26.245 23.6113C25.3075 23.6113 24.5725 23.2325 24.04 22.475C23.515 21.7175 23.2525 20.7575 23.2525 19.595C23.2525 18.095 23.62 16.7075 24.355 15.4325C24.7075 14.825 25.1725 14.33 25.75 13.9475C26.335 13.565 26.98 13.3737 27.685 13.3737C28.6225 13.3737 29.3538 13.7562 29.8788 14.5212C30.4113 15.2787 30.6775 16.2387 30.6775 17.4012C30.6775 18.6087 30.4375 19.7412 29.9575 20.7987C29.4325 21.9687 28.7275 22.7825 27.8425 23.24C27.3475 23.4875 26.815 23.6113 26.245 23.6113ZM35.4613 17.075C35.8438 16.4375 36.1325 15.9125 36.3275 15.5C36.5225 15.08 36.62 14.7312 36.62 14.4537C36.62 14.1762 36.5825 13.9662 36.5075 13.8237C36.7025 13.5537 36.9688 13.4187 37.3063 13.4187C37.6513 13.4187 37.8238 13.5987 37.8238 13.9587C37.8238 14.2362 37.6588 14.675 37.3288 15.275C37.0063 15.8675 36.7775 16.28 36.6425 16.5125C36.515 16.745 36.2788 17.15 35.9338 17.7275C35.5888 18.305 35.39 18.635 35.3375 18.7175C35.075 19.16 34.91 19.565 34.8425 19.9325C34.7525 20.6525 34.7075 21.2187 34.7075 21.6312C34.7075 22.2762 34.8425 22.7487 35.1125 23.0487C34.88 23.3187 34.6213 23.4538 34.3363 23.4538C34.0513 23.4538 33.8375 23.3487 33.695 23.1387C33.5525 22.9212 33.4813 22.595 33.4813 22.16C33.4813 21.725 33.5675 20.9712 33.74 19.8987C32.9675 16.0437 32.2138 14.1162 31.4788 14.1162C31.5613 13.8612 31.6963 13.6737 31.8838 13.5537C32.0713 13.4337 32.2513 13.3737 32.4238 13.3737C32.8738 13.3737 33.2375 13.7637 33.515 14.5437C33.8375 15.4962 34.19 16.8687 34.5725 18.6612C34.7825 18.2337 35.0788 17.705 35.4613 17.075ZM44.6663 23.0487C44.5463 23.3187 44.3063 23.4538 43.9463 23.4538C43.5863 23.4538 43.2976 23.36 43.0801 23.1725C42.8701 22.985 42.6976 22.6737 42.5626 22.2387C42.4351 21.8037 42.3263 21.2262 42.2363 20.5062H38.9401C38.5576 21.3687 38.3663 22.0362 38.3663 22.5087C38.3663 22.7262 38.4113 22.9062 38.5013 23.0487C38.3213 23.3187 38.0626 23.4538 37.7251 23.4538C37.3876 23.4538 37.2188 23.2662 37.2188 22.8912C37.2188 22.6812 37.2826 22.3737 37.4101 21.9688C37.5451 21.5562 38.0288 20.4875 38.8613 18.7625C39.6938 17.03 40.2113 15.8562 40.4138 15.2412C40.6238 14.6187 40.7288 14.2175 40.7288 14.0375C40.7288 13.8575 40.7176 13.7225 40.6951 13.6325C40.9426 13.46 41.2126 13.3737 41.5051 13.3737C41.7976 13.3737 42.0301 13.4487 42.2026 13.5987C42.3826 13.7412 42.5363 14.0225 42.6638 14.4425C42.7988 14.8625 42.9488 15.9762 43.1138 17.7837C43.2863 19.5912 43.4813 20.87 43.6988 21.62C43.8563 22.175 44.1788 22.6512 44.6663 23.0487ZM41.5051 15.0837C41.3326 15.4887 40.9763 16.2387 40.4363 17.3337C39.8963 18.4287 39.5101 19.2312 39.2776 19.7412H42.1576C42.1201 19.2687 42.0563 18.6537 41.9663 17.8962C41.8838 17.1312 41.8276 16.6475 41.7976 16.445C41.7076 15.9125 41.6101 15.4587 41.5051 15.0837ZM48.2239 13.7675C48.6964 13.52 49.1989 13.3962 49.7314 13.3962C50.2639 13.3962 50.6914 13.49 51.0139 13.6775C51.3439 13.8575 51.5089 14.1162 51.5089 14.4537C51.5089 14.6412 51.4714 14.8175 51.3964 14.9825C51.3289 15.14 51.2651 15.2525 51.2051 15.32C51.1451 15.3875 51.0551 15.4737 50.9351 15.5787C50.7476 15.1512 50.5151 14.825 50.2376 14.6C49.9676 14.375 49.6264 14.2625 49.2139 14.2625C48.8014 14.2625 48.4376 14.3862 48.1226 14.6337C47.8151 14.8812 47.5714 15.1887 47.3914 15.5562C47.2189 15.9237 47.0726 16.3362 46.9526 16.7937C46.7501 17.5662 46.6489 18.3275 46.6489 19.0775C46.6489 20.2475 46.8176 21.1662 47.1551 21.8337C47.4926 22.4937 47.9389 22.8237 48.4939 22.8237C48.8689 22.8237 49.2251 22.73 49.5626 22.5425C49.9001 22.3475 50.1851 22.085 50.4176 21.755C50.4401 21.4925 50.4926 21.0912 50.5751 20.5512C50.6651 20.0112 50.7101 19.595 50.7101 19.3025C50.7101 19.0025 50.6539 18.7287 50.5414 18.4812C50.7064 18.3387 50.9089 18.2675 51.1489 18.2675C51.3889 18.2675 51.5576 18.335 51.6551 18.47C51.7601 18.5975 51.8126 18.7962 51.8126 19.0662C51.8126 19.3287 51.7489 19.8387 51.6214 20.5962C51.4939 21.3537 51.4301 21.8975 51.4301 22.2275C51.4301 22.55 51.5426 22.8425 51.7676 23.105C51.5726 23.33 51.3476 23.4425 51.0926 23.4425C50.6801 23.4425 50.4476 23.1575 50.3951 22.5875C49.7426 23.27 48.9889 23.6113 48.1339 23.6113C47.2864 23.6113 46.6226 23.2325 46.1426 22.475C45.6701 21.7175 45.4339 20.7575 45.4339 19.595C45.4339 18.38 45.6664 17.2475 46.1314 16.1975C46.6414 15.0425 47.3389 14.2325 48.2239 13.7675ZM55.924 13.6212L57.7465 13.6437C58.6465 13.6437 59.2465 13.5725 59.5465 13.43C59.509 13.9175 59.389 14.2437 59.1865 14.4087C58.9915 14.5662 58.6802 14.645 58.2527 14.645C57.5477 14.645 56.6665 14.5625 55.609 14.3975C55.609 14.9 55.4515 16.0962 55.1365 17.9862C56.6065 17.9712 57.5665 17.8475 58.0165 17.615C57.9715 18.2075 57.8027 18.575 57.5102 18.7175C57.3527 18.8 57.2027 18.8525 57.0602 18.875C56.9177 18.89 56.7452 18.8975 56.5427 18.8975C56.3402 18.8975 55.8265 18.8637 55.0015 18.7962C54.769 20.2887 54.6527 21.395 54.6527 22.115C54.6527 22.265 54.6565 22.3737 54.664 22.4412C55.279 22.4712 55.7965 22.4862 56.2165 22.4862C57.634 22.4862 58.5265 22.3887 58.894 22.1937C58.8715 22.4937 58.819 22.7337 58.7365 22.9137C58.6615 23.0937 58.534 23.225 58.354 23.3075C58.174 23.39 57.9977 23.4388 57.8252 23.4538C57.6602 23.4763 57.3902 23.4875 57.0152 23.4875C56.6477 23.4875 55.9127 23.4088 54.8102 23.2512C54.6077 23.3937 54.4052 23.465 54.2027 23.465C53.6627 23.465 53.3927 23.1012 53.3927 22.3737C53.3927 21.9012 53.5615 20.69 53.899 18.74C53.779 18.7325 53.5877 18.7287 53.3252 18.7287C53.3627 18.4512 53.4227 18.2675 53.5052 18.1775C53.5877 18.08 53.7602 18.02 54.0227 17.9975C54.2327 16.67 54.3377 15.7475 54.3377 15.23C54.3377 14.705 54.2815 14.2737 54.169 13.9362C54.4315 13.7262 55.0165 13.6212 55.924 13.6212Z" fill="black"/>
</svg>
