<svg width="30" height="30" viewBox="0 0 30 30" fill="none" xmlns="http://www.w3.org/2000/svg">
<g clip-path="url(#clip0_6_43)">
<path d="M7.60735 29.8938C6.44698 29.8809 5.29751 29.6681 4.20941 29.2647C3.41484 28.971 2.69594 28.5034 2.10529 27.8962C1.4964 27.3067 1.02814 26.5876 0.735294 25.7924C0.33228 24.7043 0.11976 23.5549 0.107059 22.3947C0.0179412 20.4659 0 19.8874 0 15C0 10.1126 0.0197059 9.53618 0.106176 7.60588C0.120418 6.44611 0.333201 5.29734 0.735294 4.20941C1.02957 3.41471 1.49716 2.69553 2.10412 2.10412C2.69404 1.49577 3.41327 1.02795 4.20853 0.735294C5.29663 0.331946 6.44609 0.119126 7.60647 0.106176C9.53588 0.0179412 10.1153 0 15 0C19.8847 0 20.4638 0.0197059 22.3941 0.106176C23.5542 0.120318 24.7033 0.333102 25.7915 0.735294C26.5864 1.02833 27.3054 1.496 27.8956 2.10382C28.5036 2.69419 28.9715 3.41341 29.2647 4.20853C29.6682 5.29661 29.8811 6.44608 29.8941 7.60647C29.9824 9.53677 30.0003 10.1147 30.0003 15.0006C30.0003 19.8865 29.9824 20.4644 29.8941 22.3947C29.8801 23.5549 29.6672 24.7041 29.2647 25.7924C28.9602 26.5815 28.4939 27.2982 27.8957 27.8962C27.2975 28.4943 26.5807 28.9604 25.7915 29.2647C24.7034 29.6681 23.5539 29.8811 22.3935 29.8941C20.465 29.9824 19.8853 30.0003 14.9994 30.0003C10.1135 30.0003 9.53559 29.9832 7.60706 29.8941" fill="url(#paint0_radial_6_43)"/>
<path d="M11.4306 15.1444C11.4306 14.4096 11.6486 13.6914 12.0569 13.0805C12.4651 12.4696 13.0454 11.9935 13.7243 11.7123C14.4031 11.4312 15.1501 11.3577 15.8707 11.5012C16.5914 11.6446 17.2533 11.9985 17.7728 12.5181C18.2923 13.0377 18.646 13.6997 18.7893 14.4204C18.9325 15.1411 18.8589 15.8881 18.5776 16.5669C18.2963 17.2457 17.8201 17.8258 17.2091 18.2339C16.5981 18.642 15.8798 18.8598 15.145 18.8597C14.1598 18.8596 13.215 18.468 12.5184 17.7713C11.8218 17.0745 11.4305 16.1296 11.4306 15.1444ZM9.42206 15.1444C9.42206 16.2763 9.7577 17.3828 10.3865 18.3239C11.0154 19.265 11.9092 19.9986 12.9549 20.4317C14.0007 20.8649 15.1513 20.9782 16.2615 20.7574C17.3716 20.5366 18.3914 19.9915 19.1917 19.1911C19.9921 18.3908 20.5372 17.371 20.758 16.2609C20.9788 15.1508 20.8655 14.0001 20.4323 12.9543C19.9992 11.9086 19.2656 11.0148 18.3245 10.386C17.3834 9.75711 16.2769 9.42147 15.145 9.42147C14.3934 9.42143 13.6492 9.56943 12.9549 9.85702C12.2605 10.1446 11.6296 10.5662 11.0982 11.0976C10.5668 11.629 10.1452 12.2599 9.85762 12.9543C9.57002 13.6486 9.42202 14.3929 9.42206 15.1444ZM19.7571 9.1947C19.7569 9.45921 19.8353 9.71781 19.9821 9.9378C20.129 10.1578 20.3378 10.3293 20.5821 10.4306C20.8264 10.5319 21.0953 10.5586 21.3547 10.5071C21.6142 10.4556 21.8525 10.3283 22.0396 10.1414C22.2268 9.95441 22.3542 9.71618 22.406 9.45678C22.4577 9.19738 22.4313 8.92847 22.3302 8.68405C22.2291 8.43964 22.0578 8.2307 21.8379 8.08366C21.618 7.93661 21.3595 7.85806 21.095 7.85794C20.7405 7.8581 20.4005 7.99897 20.1497 8.24961C19.899 8.50025 19.758 8.84016 19.7576 9.1947M10.6429 24.2165C9.93621 24.2087 9.23609 24.0794 8.57323 23.8341C8.09252 23.6488 7.65593 23.3649 7.29156 23.0007C6.9272 22.6365 6.64313 22.2 6.45764 21.7194C6.21228 21.0566 6.08294 20.3564 6.07529 19.6497C6.02118 18.475 6.01059 18.1221 6.01059 15.1459C6.01059 12.1697 6.02235 11.8176 6.07529 10.6418C6.08387 9.93512 6.21318 9.23513 6.45764 8.57205C6.64292 8.09119 6.9269 7.65449 7.29129 7.29011C7.65567 6.92572 8.09237 6.64174 8.57323 6.45647C9.23606 6.21111 9.9362 6.08177 10.6429 6.07412C11.8176 6.02 12.1706 6.00941 15.1456 6.00941C18.1206 6.00941 18.4738 6.02088 19.6497 6.07441C20.3564 6.08299 21.0563 6.2123 21.7194 6.45676C22.2003 6.64205 22.637 6.92604 23.0013 7.29042C23.3657 7.65481 23.6497 8.0915 23.835 8.57235C24.0803 9.23518 24.2097 9.93532 24.2173 10.6421C24.2715 11.8185 24.2821 12.1697 24.2821 15.1462C24.2821 18.1226 24.2712 18.4744 24.2173 19.6503C24.2091 20.357 24.0798 21.057 23.835 21.72C23.6495 22.2006 23.3654 22.6371 23.0011 23.0013C22.6367 23.3655 22.2001 23.6494 21.7194 23.8347C21.0566 24.0801 20.3564 24.2094 19.6497 24.2171C18.475 24.2712 18.1221 24.2818 15.1456 24.2818C12.1691 24.2818 11.8174 24.2709 10.6429 24.2171M10.5506 4.06735C9.62583 4.08554 8.71087 4.26057 7.8447 4.585C7.10426 4.87128 6.43182 5.30913 5.87048 5.87048C5.30913 6.43182 4.87128 7.10426 4.585 7.8447C4.26061 8.71088 4.08558 9.62584 4.06735 10.5506C4.01235 11.7388 4 12.1188 4 15.1456C4 18.1724 4.01265 18.5521 4.06735 19.7406C4.08558 20.6653 4.2606 21.5803 4.585 22.4465C4.8713 23.1869 5.30915 23.8593 5.87049 24.4207C6.43183 24.982 7.10427 25.4199 7.8447 25.7062C8.71091 26.0305 9.62585 26.2055 10.5506 26.2238C11.7394 26.2779 12.1188 26.2912 15.1456 26.2912C18.1724 26.2912 18.5521 26.2785 19.7406 26.2238C20.6653 26.2056 21.5803 26.0305 22.4465 25.7062C23.1869 25.4199 23.8593 24.982 24.4207 24.4207C24.982 23.8593 25.4199 23.1869 25.7062 22.4465C26.031 21.5804 26.206 20.6654 26.2238 19.7406C26.2779 18.5515 26.2903 18.1724 26.2903 15.1456C26.2903 12.1188 26.2776 11.7391 26.2238 10.5506C26.2056 9.62583 26.0306 8.71087 25.7062 7.8447C25.4199 7.1044 24.9821 6.43206 24.421 5.87074C23.8598 5.30941 23.1876 4.87148 22.4474 4.585C21.5812 4.26036 20.6662 4.08532 19.7415 4.06735C18.5529 4.01294 18.1732 4 15.1471 4C12.1209 4 11.7403 4.01265 10.5512 4.06735" fill="white"/>
</g>
<defs>
<radialGradient id="paint0_radial_6_43" cx="0" cy="0" r="1" gradientUnits="userSpaceOnUse" gradientTransform="translate(1.94147 29.3429) scale(38.0888)">
<stop offset="0.09" stop-color="#FA8F21"/>
<stop offset="0.78" stop-color="#D82D7E"/>
</radialGradient>
<clipPath id="clip0_6_43">
<rect width="30" height="30" fill="white"/>
</clipPath>
</defs>
</svg>
