<svg width="113" height="45" viewBox="0 0 113 45" fill="none" xmlns="http://www.w3.org/2000/svg">
<path d="M0.275645 23.535C0.205645 23.4883 0.182311 23.43 0.205645 23.36C0.905645 22.1233 1.50064 21.0383 1.99064 20.105C1.43064 19.5683 1.15064 18.9733 1.15064 18.32C1.15064 17.0133 2.34064 15.8 4.72064 14.68C6.77398 10.34 7.70731 7.225 7.52064 5.335C6.79731 5.49833 6.15564 5.62667 5.59564 5.72C5.05898 5.81333 4.61564 5.86 4.26564 5.86C3.56564 5.86 2.99398 5.73167 2.55064 5.475C2.17731 5.24167 1.99064 4.915 1.99064 4.495C1.99064 4.355 2.02564 4.20333 2.09564 4.04C2.25898 3.52667 2.60898 3.10667 3.14564 2.78C3.68231 2.45333 4.27731 2.29 4.93064 2.29C6.40064 2.29 7.35731 2.99 7.80064 4.39L9.72564 4.04L12.5256 3.585C13.2023 3.49167 13.8206 3.42167 14.3806 3.375C14.9406 3.32833 15.454 3.305 15.9206 3.305C16.9706 3.305 17.7873 3.46833 18.3706 3.795C19.0706 4.145 19.4206 4.65833 19.4206 5.335C19.4206 6.175 18.8373 7.10833 17.6706 8.135C16.3406 9.27833 14.6723 10.1883 12.6656 10.865H12.9106C13.0973 10.8417 13.2723 10.83 13.4356 10.83C13.6223 10.83 13.7973 10.83 13.9606 10.83C15.5706 10.83 16.924 11.1683 18.0206 11.845C19.1873 12.5917 19.7706 13.525 19.7706 14.645C19.7706 15.625 19.339 16.6167 18.4756 17.62C17.519 18.81 16.0373 19.8133 14.0306 20.63C11.9306 21.4467 9.64398 21.855 7.17064 21.855C5.11731 21.855 3.47231 21.3417 2.23564 20.315L0.450645 23.5C0.427311 23.57 0.368978 23.5817 0.275645 23.535ZM4.44064 4.81C4.76731 4.78667 5.16398 4.75167 5.63064 4.705C6.12064 4.635 6.69231 4.55333 7.34565 4.46C6.92564 3.17667 6.10898 2.535 4.89564 2.535C3.89231 2.535 3.20398 2.96667 2.83064 3.83C2.76064 3.92333 2.72564 4.02833 2.72564 4.145C2.72564 4.65833 3.29731 4.88 4.44064 4.81ZM6.78564 21.365C9.14231 21.365 11.3123 20.945 13.2956 20.105C15.069 19.335 16.434 18.3667 17.3906 17.2C18.184 16.2667 18.5806 15.3917 18.5806 14.575C18.5806 13.5717 18.0206 12.7783 16.9006 12.195C15.8273 11.6583 14.5673 11.39 13.1206 11.39C12.2573 11.39 11.4173 11.495 10.6006 11.705C10.4373 11.7283 10.3556 11.67 10.3556 11.53C10.3556 11.3433 10.4606 11.1333 10.6706 10.9C10.8806 10.6433 11.1373 10.5033 11.4406 10.48C11.5106 10.4567 11.5806 10.445 11.6506 10.445C11.7206 10.445 11.779 10.445 11.8256 10.445C11.9423 10.445 12.0706 10.4683 12.2106 10.515C13.7973 10.0017 15.244 9.09167 16.5506 7.785C17.6006 6.75833 18.1256 5.895 18.1256 5.195C18.1256 4.30833 17.204 3.865 15.3606 3.865C14.8473 3.865 14.2756 3.9 13.6456 3.97C13.039 4.04 12.374 4.15667 11.6506 4.32L8.01064 5.195C8.03398 5.31167 8.04564 5.44 8.04564 5.58C8.04564 5.72 8.04564 5.86 8.04564 6C8.04564 6.23333 8.03398 6.49 8.01064 6.77C7.98731 7.02667 7.95231 7.30667 7.90565 7.61C7.74231 8.49667 7.43898 9.51167 6.99564 10.655C6.57564 11.7983 6.02731 13.0583 5.35064 14.435C5.51398 14.3883 5.67731 14.3417 5.84064 14.295C6.02731 14.225 6.21398 14.1783 6.40064 14.155C7.21731 11.635 8.69898 8.87 10.8456 5.86C11.1023 5.53333 11.464 5.37 11.9306 5.37C12.304 5.37 12.4906 5.45167 12.4906 5.615C12.4906 5.685 12.444 5.76667 12.3506 5.86C11.8606 6.35 11.1023 7.4 10.0756 9.01C8.86231 10.8767 7.95231 12.545 7.34565 14.015C7.71898 13.9683 8.08065 13.9333 8.43065 13.91C8.80398 13.8633 9.17731 13.84 9.55064 13.84C12.1173 13.84 13.6806 14.295 14.2406 15.205C14.3106 15.345 14.2756 15.415 14.1356 15.415C14.0423 15.415 13.9256 15.3917 13.7856 15.345C12.899 14.7617 11.4173 14.47 9.34064 14.47C8.94398 14.47 8.55898 14.4817 8.18564 14.505C7.81231 14.5283 7.45065 14.5633 7.10065 14.61C6.93731 15.03 6.82064 15.415 6.75064 15.765C6.70398 16.0917 6.68064 16.3833 6.68064 16.64C6.68064 17.13 6.78564 17.5383 6.99564 17.865C7.25231 18.285 7.57898 18.495 7.97564 18.495L8.22064 18.46C8.40731 18.4133 8.50064 18.4717 8.50064 18.635C8.50064 18.6817 8.44231 18.7283 8.32564 18.775C7.57898 18.8217 6.99564 18.635 6.57565 18.215C6.17898 17.7717 5.98064 17.1767 5.98064 16.43C5.98064 16.1967 5.99231 15.9517 6.01564 15.695C6.06231 15.415 6.13231 15.1233 6.22564 14.82C5.99231 14.8667 5.77064 14.9367 5.56064 15.03C5.35064 15.1 5.12898 15.1933 4.89564 15.31C4.61564 15.87 4.27731 16.5117 3.88064 17.235C3.50731 17.935 3.08731 18.7283 2.62064 19.615C3.36731 20.7817 4.75564 21.365 6.78564 21.365ZM2.44564 19.265C2.79564 18.6117 3.12231 17.9933 3.42564 17.41C3.72898 16.8033 4.00898 16.2317 4.26564 15.695C2.93564 16.535 2.27064 17.4567 2.27064 18.46C2.27064 18.7167 2.32898 18.985 2.44564 19.265Z" fill="#FF715B"/>
<path d="M24.5025 42.45C24.1991 42.45 23.9075 42.3333 23.6275 42.1C23.3475 41.8667 23.2191 41.6217 23.2425 41.365C23.2891 40.8517 23.3708 40.3033 23.4875 39.72C23.6041 39.1367 23.7558 38.5183 23.9425 37.865C23.7558 37.8183 23.5691 37.76 23.3825 37.69C23.2191 37.5967 23.0441 37.5033 22.8575 37.41C22.0875 39.58 21.6675 41.0733 21.5975 41.89C21.5975 41.96 21.5858 41.995 21.5625 41.995C21.4925 41.995 21.4341 41.96 21.3875 41.89C21.3641 41.8433 21.3641 41.8083 21.3875 41.785C21.5041 40.805 21.8891 39.3 22.5425 37.27C20.8625 36.3133 19.5325 34.9367 18.5525 33.14C17.6191 31.4367 17.1525 29.57 17.1525 27.54C14.8658 29.64 13.7225 31.5417 13.7225 33.245C13.7225 34.2717 14.2008 35.065 15.1575 35.625C15.3908 35.765 15.5075 35.8817 15.5075 35.975C15.5075 36.0683 15.4491 36.115 15.3325 36.115C15.2158 36.115 15.0641 36.0567 14.8775 35.94C13.6175 34.9133 12.9875 33.7467 12.9875 32.44C12.9875 31.3667 13.4075 30.2583 14.2475 29.115C14.9941 28.0417 15.9858 27.0617 17.2225 26.175C17.2458 25.895 17.2808 25.6267 17.3275 25.37C17.3741 25.09 17.4325 24.8217 17.5025 24.565C17.8291 23.4683 18.3191 22.535 18.9725 21.765C19.7425 20.8783 20.6408 20.435 21.6675 20.435C22.4141 20.435 23.0675 20.68 23.6275 21.17C24.2575 21.73 24.7125 22.5117 24.9925 23.515C27.0691 23.9117 28.1075 25.3933 28.1075 27.96C28.1075 29.22 27.8041 30.725 27.1975 32.475C26.9641 33.0583 26.6841 33.7933 26.3575 34.68C26.0541 35.5433 25.7041 36.57 25.3075 37.76C26.2408 37.7833 27.1625 37.5383 28.0725 37.025C28.8891 36.5583 29.3675 36.01 29.5075 35.38C29.5541 35.3333 29.5891 35.31 29.6125 35.31C29.7758 35.31 29.8341 35.3567 29.7875 35.45C29.6241 36.1267 29.0875 36.7217 28.1775 37.235C27.2441 37.8183 26.2525 38.0867 25.2025 38.04C24.7358 39.51 24.5025 40.49 24.5025 40.98C24.5025 41.26 24.5841 41.4 24.7475 41.4C25.4475 41.4 26.7891 40.5833 28.7725 38.95C29.5658 38.2967 30.2658 37.69 30.8725 37.13C31.4791 36.57 31.9808 36.0683 32.3775 35.625C33.1475 34.8083 33.8358 33.98 34.4425 33.14C35.0725 32.3 35.6208 31.46 36.0875 30.62C37.2308 28.5667 37.8025 26.7117 37.8025 25.055C37.8025 23.6083 37.3475 22.36 36.4375 21.31C36.2508 21.0533 36.1575 20.8783 36.1575 20.785C36.1575 20.715 36.1808 20.68 36.2275 20.68C36.3908 20.68 36.6008 20.7967 36.8575 21.03C38.0941 22.1267 38.7125 23.4917 38.7125 25.125C38.7125 26.8283 38.0708 28.7417 36.7875 30.865C35.7841 32.5683 34.4425 34.295 32.7625 36.045C28.6791 40.315 25.9258 42.45 24.5025 42.45ZM17.7475 25.79L17.9575 25.685C20.3608 24.0517 22.5191 23.305 24.4325 23.445C24.1758 22.605 23.7908 21.9633 23.2775 21.52C22.7875 21.0767 22.2391 20.855 21.6325 20.855C20.7691 20.855 20.0108 21.2167 19.3575 21.94C18.7275 22.5933 18.2725 23.4683 17.9925 24.565C17.9458 24.7517 17.8991 24.95 17.8525 25.16C17.8291 25.37 17.7941 25.58 17.7475 25.79ZM22.6825 36.92L22.8575 36.395C24.1641 32.5917 24.8175 29.29 24.8175 26.49C24.8175 25.51 24.7475 24.6933 24.6075 24.04C24.5141 24.0167 24.4208 24.005 24.3275 24.005C24.2341 23.9817 24.1408 23.97 24.0475 23.97C22.2275 23.97 20.1041 24.9967 17.6775 27.05C17.6775 28.9867 18.1208 30.865 19.0075 32.685C19.9408 34.5517 21.1658 35.9633 22.6825 36.92ZM24.0475 37.55C24.4675 36.29 25.0625 34.435 25.8325 31.985C26.3925 30.165 26.6725 28.6367 26.6725 27.4C26.6725 25.6967 26.1591 24.635 25.1325 24.215C25.1791 24.5183 25.2141 24.845 25.2375 25.195C25.2841 25.545 25.3075 25.9417 25.3075 26.385C25.3075 29.115 24.6075 32.4633 23.2075 36.43L22.9625 37.095C23.1491 37.1883 23.3241 37.2817 23.4875 37.375C23.6741 37.445 23.8608 37.5033 24.0475 37.55Z" fill="#FF715B"/>
<path d="M34.34 20.42C34.1267 20.9 33.7 21.14 33.06 21.14C32.42 21.14 31.9067 20.9733 31.52 20.64C31.1467 20.3067 30.84 19.7533 30.6 18.98C30.3733 18.2067 30.18 17.18 30.02 15.9H24.16C23.48 17.4333 23.14 18.62 23.14 19.46C23.14 19.8467 23.22 20.1667 23.38 20.42C23.06 20.9 22.6 21.14 22 21.14C21.4 21.14 21.1 20.8067 21.1 20.14C21.1 19.7667 21.2133 19.22 21.44 18.5C21.68 17.7667 22.54 15.8667 24.02 12.8C25.5 9.72 26.42 7.63333 26.78 6.54C27.1533 5.43333 27.34 4.72 27.34 4.4C27.34 4.08 27.32 3.84 27.28 3.68C27.72 3.37333 28.2 3.22 28.72 3.22C29.24 3.22 29.6533 3.35333 29.96 3.62C30.28 3.87333 30.5533 4.37333 30.78 5.12C31.02 5.86667 31.2867 7.84667 31.58 11.06C31.8867 14.2733 32.2333 16.5467 32.62 17.88C32.9 18.8667 33.4733 19.7133 34.34 20.42ZM28.72 6.26C28.4133 6.98 27.78 8.31333 26.82 10.26C25.86 12.2067 25.1733 13.6333 24.76 14.54H29.88C29.8133 13.7 29.7 12.6067 29.54 11.26C29.3933 9.9 29.2933 9.04 29.24 8.68C29.08 7.73333 28.9067 6.92667 28.72 6.26ZM46.9045 7.16C46.9045 9.56 45.2779 11.5 42.0245 12.98C42.1979 13.3267 42.4512 13.8467 42.7845 14.54C43.1179 15.22 43.3712 15.7267 43.5445 16.06C43.7179 16.3933 43.9512 16.8067 44.2445 17.3C44.5379 17.7933 44.7979 18.16 45.0245 18.4C45.6379 19.0533 46.2579 19.4267 46.8845 19.52C46.7912 20.1333 46.5779 20.5667 46.2445 20.82C45.9245 21.0733 45.6112 21.2 45.3045 21.2C44.6245 21.2 43.9912 20.7533 43.4045 19.86C43.0579 19.3667 42.0112 17.3 40.2645 13.66C40.0379 13.74 39.4712 13.9 38.5645 14.14C38.3779 15.5133 38.2845 16.7667 38.2845 17.9C38.2845 19.0333 38.5379 19.8733 39.0445 20.42C38.6312 20.9 38.1712 21.14 37.6645 21.14C36.6245 21.14 36.1045 20.26 36.1045 18.5C36.1045 17.7667 36.3579 15.7467 36.8645 12.44C37.3712 9.13333 37.6245 7.01333 37.6245 6.08C37.6245 5.13333 37.5245 4.34667 37.3245 3.72C39.1245 3.38667 40.6112 3.22 41.7845 3.22C45.1979 3.22 46.9045 4.53333 46.9045 7.16ZM44.8045 7.56C44.8045 6.48 44.4845 5.69333 43.8445 5.2C43.2045 4.69333 42.3579 4.44 41.3045 4.44C40.8379 4.44 40.3645 4.48 39.8845 4.56C39.8845 5.30667 39.7979 6.22 39.6245 7.3C39.4245 8.62 39.1379 10.44 38.7645 12.76C40.3512 12.44 41.7179 11.8933 42.8645 11.12C43.4645 10.7067 43.9379 10.2 44.2845 9.6C44.6312 8.98667 44.8045 8.30667 44.8045 7.56ZM51.4705 3.22C51.9771 3.22 52.3438 3.38667 52.5705 3.72C52.7971 4.04 52.9105 4.59333 52.9105 5.38C52.9105 6.16667 52.6238 8.25333 52.0505 11.64C51.4905 15.0133 51.2105 17.3867 51.2105 18.76C51.2105 19.0267 51.2171 19.2267 51.2305 19.36C51.9905 19.4 52.8505 19.42 53.8105 19.42C56.2905 19.42 57.8438 19.2467 58.4705 18.9C58.4305 19.4333 58.3438 19.86 58.2105 20.18C58.0771 20.5 57.8571 20.7333 57.5505 20.88C57.2571 21.0267 56.9638 21.1133 56.6705 21.14C56.3905 21.18 55.9371 21.2 55.3105 21.2C54.6838 21.2 53.4171 21.06 51.5105 20.78C51.1505 21.0333 50.7771 21.16 50.3905 21.16C49.4305 21.16 48.9505 20.5133 48.9505 19.22C48.9505 18.3667 49.2238 16.3533 49.7705 13.18C50.3305 10.0067 50.6105 7.77333 50.6105 6.48C50.6105 5.17333 50.4705 4.24 50.1905 3.68C50.5505 3.37333 50.9771 3.22 51.4705 3.22ZM71.8009 20.42C71.5876 20.9 71.1609 21.14 70.5209 21.14C69.8809 21.14 69.3676 20.9733 68.9809 20.64C68.6076 20.3067 68.3009 19.7533 68.0609 18.98C67.8343 18.2067 67.6409 17.18 67.4809 15.9H61.6209C60.9409 17.4333 60.6009 18.62 60.6009 19.46C60.6009 19.8467 60.6809 20.1667 60.8409 20.42C60.5209 20.9 60.0609 21.14 59.4609 21.14C58.8609 21.14 58.5609 20.8067 58.5609 20.14C58.5609 19.7667 58.6743 19.22 58.9009 18.5C59.1409 17.7667 60.0009 15.8667 61.4809 12.8C62.9609 9.72 63.8809 7.63333 64.2409 6.54C64.6143 5.43333 64.8009 4.72 64.8009 4.4C64.8009 4.08 64.7809 3.84 64.7409 3.68C65.1809 3.37333 65.6609 3.22 66.1809 3.22C66.7009 3.22 67.1143 3.35333 67.4209 3.62C67.7409 3.87333 68.0143 4.37333 68.2409 5.12C68.4809 5.86667 68.7476 7.84667 69.0409 11.06C69.3476 14.2733 69.6943 16.5467 70.0809 17.88C70.3609 18.8667 70.9343 19.7133 71.8009 20.42ZM66.1809 6.26C65.8743 6.98 65.2409 8.31333 64.2809 10.26C63.3209 12.2067 62.6343 13.6333 62.2209 14.54H67.3409C67.2743 13.7 67.1609 12.6067 67.0009 11.26C66.8543 9.9 66.7543 9.04 66.7009 8.68C66.5409 7.73333 66.3676 6.92667 66.1809 6.26ZM81.4055 7.1C81.1388 6.43333 80.6921 5.86667 80.0655 5.4C79.4388 4.93333 78.7388 4.7 77.9655 4.7C77.2055 4.7 76.5788 4.93333 76.0855 5.4C75.5921 5.85333 75.3455 6.49333 75.3455 7.32C75.3455 7.69333 75.3721 8 75.4255 8.24C75.4921 8.48 75.6521 8.74667 75.9055 9.04C76.1721 9.32 76.4255 9.56 76.6655 9.76C76.9188 9.96 77.3788 10.3267 78.0455 10.86C78.7121 11.3933 79.3921 11.96 80.0855 12.56C80.7921 13.1467 81.3321 13.7533 81.7055 14.38C82.0788 15.0067 82.2655 15.8067 82.2655 16.78C82.2655 18.06 81.7521 19.14 80.7255 20.02C79.7121 20.9 78.4188 21.34 76.8455 21.34C75.6188 21.34 74.5455 21.1 73.6255 20.62C72.7055 20.1267 72.2455 19.4333 72.2455 18.54C72.2455 18.1533 72.3321 17.8067 72.5055 17.5C72.6788 17.1933 72.9321 16.8467 73.2655 16.46C73.8521 18.8333 75.2188 20.02 77.3655 20.02C78.1388 20.02 78.8188 19.8 79.4055 19.36C79.9921 18.92 80.2855 18.2667 80.2855 17.4C80.2855 16.9067 80.2255 16.5333 80.1055 16.28C79.9855 16.0133 79.8855 15.8067 79.8055 15.66C79.7388 15.5133 79.6121 15.34 79.4255 15.14C79.2388 14.9267 79.0855 14.76 78.9655 14.64C78.8455 14.5067 78.6388 14.32 78.3455 14.08C78.0521 13.8267 77.8188 13.6333 77.6455 13.5C77.4855 13.3533 77.2055 13.1267 76.8055 12.82C76.4055 12.5 76.0921 12.2467 75.8655 12.06C75.0921 11.4333 74.4988 10.8067 74.0855 10.18C73.6855 9.55333 73.4855 8.8 73.4855 7.92C73.4855 6.44 73.9855 5.28667 74.9855 4.46C75.9855 3.63333 77.2921 3.22 78.9055 3.22C79.8655 3.22 80.6721 3.40667 81.3255 3.78C81.9788 4.15333 82.3055 4.66667 82.3055 5.32C82.3055 5.97333 82.0055 6.56667 81.4055 7.1Z" fill="black"/>
<path d="M51.6 31.26C51.6 29.1667 51.2067 27.5667 50.42 26.46C49.6467 25.3533 48.58 24.8 47.22 24.8C46.5267 24.8 45.9067 25.0267 45.36 25.48C44.8133 25.92 44.38 26.4667 44.06 27.12C43.74 27.76 43.4733 28.4933 43.26 29.32C42.9 30.6933 42.72 32.0533 42.72 33.4C42.72 35.4933 43.1067 37.0933 43.88 38.2C44.6667 39.3067 45.74 39.86 47.1 39.86C47.7933 39.86 48.4133 39.64 48.96 39.2C49.5067 38.7467 49.94 38.2 50.26 37.56C50.58 36.9067 50.8467 36.1733 51.06 35.36C51.42 33.9733 51.6 32.6067 51.6 31.26ZM45.88 41.42C44.2133 41.42 42.9067 40.7467 41.96 39.4C41.0267 38.0533 40.56 36.3467 40.56 34.28C40.56 31.6133 41.2133 29.1467 42.52 26.88C43.1467 25.8 43.9733 24.92 45 24.24C46.04 23.56 47.1867 23.22 48.44 23.22C50.1067 23.22 51.4067 23.9 52.34 25.26C53.2867 26.6067 53.76 28.3133 53.76 30.38C53.76 32.5267 53.3333 34.54 52.48 36.42C51.5467 38.5 50.2933 39.9467 48.72 40.76C47.84 41.2 46.8933 41.42 45.88 41.42ZM62.2645 29.8C62.9445 28.6667 63.4579 27.7333 63.8045 27C64.1512 26.2533 64.3245 25.6333 64.3245 25.14C64.3245 24.6467 64.2579 24.2733 64.1245 24.02C64.4712 23.54 64.9445 23.3 65.5445 23.3C66.1579 23.3 66.4645 23.62 66.4645 24.26C66.4645 24.7533 66.1712 25.5333 65.5845 26.6C65.0112 27.6533 64.6045 28.3867 64.3645 28.8C64.1379 29.2133 63.7179 29.9333 63.1045 30.96C62.4912 31.9867 62.1379 32.5733 62.0445 32.72C61.5779 33.5067 61.2845 34.2267 61.1645 34.88C61.0045 36.16 60.9245 37.1667 60.9245 37.9C60.9245 39.0467 61.1645 39.8867 61.6445 40.42C61.2312 40.9 60.7712 41.14 60.2645 41.14C59.7579 41.14 59.3779 40.9533 59.1245 40.58C58.8712 40.1933 58.7445 39.6133 58.7445 38.84C58.7445 38.0667 58.8979 36.7267 59.2045 34.82C57.8312 27.9667 56.4912 24.54 55.1845 24.54C55.3312 24.0867 55.5712 23.7533 55.9045 23.54C56.2379 23.3267 56.5579 23.22 56.8645 23.22C57.6645 23.22 58.3112 23.9133 58.8045 25.3C59.3779 26.9933 60.0045 29.4333 60.6845 32.62C61.0579 31.86 61.5845 30.92 62.2645 29.8ZM78.6291 40.42C78.4157 40.9 77.9891 41.14 77.3491 41.14C76.7091 41.14 76.1957 40.9733 75.8091 40.64C75.4357 40.3067 75.1291 39.7533 74.8891 38.98C74.6624 38.2067 74.4691 37.18 74.3091 35.9H68.4491C67.7691 37.4333 67.4291 38.62 67.4291 39.46C67.4291 39.8467 67.5091 40.1667 67.6691 40.42C67.3491 40.9 66.8891 41.14 66.2891 41.14C65.6891 41.14 65.3891 40.8067 65.3891 40.14C65.3891 39.7667 65.5024 39.22 65.7291 38.5C65.9691 37.7667 66.8291 35.8667 68.3091 32.8C69.7891 29.72 70.7091 27.6333 71.0691 26.54C71.4424 25.4333 71.6291 24.72 71.6291 24.4C71.6291 24.08 71.6091 23.84 71.5691 23.68C72.0091 23.3733 72.4891 23.22 73.0091 23.22C73.5291 23.22 73.9424 23.3533 74.2491 23.62C74.5691 23.8733 74.8424 24.3733 75.0691 25.12C75.3091 25.8667 75.5757 27.8467 75.8691 31.06C76.1757 34.2733 76.5224 36.5467 76.9091 37.88C77.1891 38.8667 77.7624 39.7133 78.6291 40.42ZM73.0091 26.26C72.7024 26.98 72.0691 28.3133 71.1091 30.26C70.1491 32.2067 69.4624 33.6333 69.0491 34.54H74.1691C74.1024 33.7 73.9891 32.6067 73.8291 31.26C73.6824 29.9 73.5824 29.04 73.5291 28.68C73.3691 27.7333 73.1957 26.9267 73.0091 26.26ZM84.9536 23.92C85.7936 23.48 86.6869 23.26 87.6336 23.26C88.5803 23.26 89.3403 23.4267 89.9136 23.76C90.5003 24.08 90.7936 24.54 90.7936 25.14C90.7936 25.4733 90.7269 25.7867 90.5936 26.08C90.4736 26.36 90.3603 26.56 90.2536 26.68C90.1469 26.8 89.9869 26.9533 89.7736 27.14C89.4403 26.38 89.0269 25.8 88.5336 25.4C88.0536 25 87.4469 24.8 86.7136 24.8C85.9803 24.8 85.3336 25.02 84.7736 25.46C84.2269 25.9 83.7936 26.4467 83.4736 27.1C83.1669 27.7533 82.9069 28.4867 82.6936 29.3C82.3336 30.6733 82.1536 32.0267 82.1536 33.36C82.1536 35.44 82.4536 37.0733 83.0536 38.26C83.6536 39.4333 84.4469 40.02 85.4336 40.02C86.1003 40.02 86.7336 39.8533 87.3336 39.52C87.9336 39.1733 88.4403 38.7067 88.8536 38.12C88.8936 37.6533 88.9869 36.94 89.1336 35.98C89.2936 35.02 89.3736 34.28 89.3736 33.76C89.3736 33.2267 89.2736 32.74 89.0736 32.3C89.3669 32.0467 89.7269 31.92 90.1536 31.92C90.5803 31.92 90.8803 32.04 91.0536 32.28C91.2403 32.5067 91.3336 32.86 91.3336 33.34C91.3336 33.8067 91.2203 34.7133 90.9936 36.06C90.7669 37.4067 90.6536 38.3733 90.6536 38.96C90.6536 39.5333 90.8536 40.0533 91.2536 40.52C90.9069 40.92 90.5069 41.12 90.0536 41.12C89.3203 41.12 88.9069 40.6133 88.8136 39.6C87.6536 40.8133 86.3136 41.42 84.7936 41.42C83.2869 41.42 82.1069 40.7467 81.2536 39.4C80.4136 38.0533 79.9936 36.3467 79.9936 34.28C79.9936 32.12 80.4069 30.1067 81.2336 28.24C82.1403 26.1867 83.3803 24.7467 84.9536 23.92ZM98.6427 23.66L101.883 23.7C103.483 23.7 104.549 23.5733 105.083 23.32C105.016 24.1867 104.803 24.7667 104.443 25.06C104.096 25.34 103.543 25.48 102.783 25.48C101.529 25.48 99.9627 25.3333 98.0827 25.04C98.0827 25.9333 97.8027 28.06 97.2427 31.42C99.856 31.3933 101.563 31.1733 102.363 30.76C102.283 31.8133 101.983 32.4667 101.463 32.72C101.183 32.8667 100.916 32.96 100.663 33C100.409 33.0267 100.103 33.04 99.7427 33.04C99.3827 33.04 98.4693 32.98 97.0027 32.86C96.5893 35.5133 96.3827 37.48 96.3827 38.76C96.3827 39.0267 96.3893 39.22 96.4027 39.34C97.496 39.3933 98.416 39.42 99.1627 39.42C101.683 39.42 103.269 39.2467 103.923 38.9C103.883 39.4333 103.789 39.86 103.643 40.18C103.509 40.5 103.283 40.7333 102.963 40.88C102.643 41.0267 102.329 41.1133 102.023 41.14C101.729 41.18 101.249 41.2 100.583 41.2C99.9293 41.2 98.6227 41.06 96.6627 40.78C96.3027 41.0333 95.9427 41.16 95.5827 41.16C94.6227 41.16 94.1427 40.5133 94.1427 39.22C94.1427 38.38 94.4427 36.2267 95.0427 32.76C94.8293 32.7467 94.4893 32.74 94.0227 32.74C94.0893 32.2467 94.196 31.92 94.3427 31.76C94.4893 31.5867 94.796 31.48 95.2627 31.44C95.636 29.08 95.8227 27.44 95.8227 26.52C95.8227 25.5867 95.7227 24.82 95.5227 24.22C95.9893 23.8467 97.0293 23.66 98.6427 23.66Z" fill="black"/>
</svg>
