<svg width="30" height="30" viewBox="0 0 30 30" fill="none" xmlns="http://www.w3.org/2000/svg">
<path d="M30 15C30 23.2843 23.2843 30 15 30C6.71573 30 0 23.2843 0 15C0 6.71573 6.71573 0 15 0C23.2843 0 30 6.71573 30 15Z" fill="#1778F2"/>
<path d="M22.5539 7.02312C22.3166 6.82573 22.0303 6.69637 21.7253 6.64879C21.4204 6.60121 21.1082 6.63721 20.8221 6.75294L5.88803 12.7824C5.56865 12.9138 5.29679 13.1392 5.10853 13.4288C4.92027 13.7183 4.8245 14.0582 4.83395 14.4034C4.8434 14.7486 4.95761 15.0828 5.16143 15.3616C5.36525 15.6404 5.64903 15.8506 5.97511 15.9644L8.99595 17.015L10.6797 22.583C10.7026 22.6574 10.7358 22.7282 10.7783 22.7933C10.7848 22.8033 10.7939 22.8108 10.8008 22.8205C10.85 22.8891 10.9094 22.9498 10.977 23.0003C10.9962 23.015 11.0146 23.0287 11.0352 23.0417C11.1143 23.0942 11.2019 23.1326 11.2941 23.1551L11.304 23.156L11.3096 23.1584C11.365 23.1696 11.4214 23.1754 11.478 23.1754C11.4835 23.1754 11.4883 23.1728 11.4937 23.1727C11.5791 23.1713 11.6637 23.1565 11.7446 23.1292C11.7634 23.1227 11.7795 23.112 11.7978 23.1043C11.8581 23.0793 11.9152 23.0472 11.968 23.0088C12.0103 22.9732 12.0526 22.9376 12.0949 22.902L14.3467 20.4158L17.7052 23.0176C18.0009 23.2478 18.3649 23.3729 18.7396 23.3732C19.1322 23.3727 19.5128 23.2372 19.8174 22.9895C20.122 22.7418 20.3322 22.3968 20.4128 22.0125L23.1317 8.66538C23.1933 8.36498 23.1721 8.05347 23.0703 7.7642C22.9685 7.47493 22.79 7.21876 22.5539 7.02312ZM11.8084 17.2803C11.6929 17.3954 11.6139 17.542 11.5814 17.7018L11.3235 18.9552L10.6701 16.7943L14.0578 15.0302L11.8084 17.2803ZM18.7266 21.7L14.7577 18.6255C14.5916 18.4972 14.3833 18.4361 14.1743 18.4545C13.9652 18.4729 13.7708 18.5694 13.6297 18.7248L12.9086 19.5208L13.1634 18.282L19.0659 12.3795C19.2068 12.2388 19.2926 12.0523 19.3079 11.8538C19.3231 11.6553 19.2668 11.4579 19.149 11.2973C19.0312 11.1368 18.8599 11.0237 18.6659 10.9786C18.472 10.9335 18.2683 10.9593 18.0918 11.0514L9.62074 15.4619L6.5171 14.3262L21.4992 8.33251L18.7266 21.7Z" fill="white"/>
</svg>
