<svg width="18" height="22" viewBox="0 0 18 22" fill="none" xmlns="http://www.w3.org/2000/svg">
<path fill-rule="evenodd" clip-rule="evenodd" d="M8.1 21.3057C8.23714 21.3995 8.40857 21.4507 8.57143 21.4507C8.73429 21.4507 8.90571 21.3995 9.04286 21.3057C9.37714 21.0924 17.1429 15.8637 17.1429 9.50901C17.1429 4.80911 13.2943 0.979248 8.57143 0.979248C3.84857 0.979248 0 4.80911 0 9.50901C0 15.8637 7.76571 21.0924 8.1 21.3057ZM1.71429 9.50901C1.71429 5.74739 4.79143 2.6852 8.57143 2.6852C12.3514 2.6852 15.4286 5.74739 15.4286 9.50901C15.4286 14.1236 10.2 18.3458 8.57143 19.5485C6.94286 18.3458 1.71429 14.1236 1.71429 9.50901ZM5.14283 9.50883C5.14283 11.3939 6.67711 12.9207 8.5714 12.9207C10.4657 12.9207 12 11.3939 12 9.50883C12 7.62375 10.4657 6.09692 8.5714 6.09692C6.67711 6.09692 5.14283 7.62375 5.14283 9.50883ZM6.85711 9.50883C6.85711 8.57055 7.62854 7.80288 8.5714 7.80288C9.51426 7.80288 10.2857 8.57055 10.2857 9.50883C10.2857 10.4471 9.51426 11.2148 8.5714 11.2148C7.62854 11.2148 6.85711 10.4471 6.85711 9.50883Z" fill="#FF715B"/>
</svg>
