<svg width="45" height="45" viewBox="0 0 45 45" fill="none" xmlns="http://www.w3.org/2000/svg">
<path d="M30.693 24.0679C32.858 22.3646 34.4383 20.0287 35.214 17.3854C35.9896 14.7421 35.9221 11.9227 35.0208 9.3195C34.1195 6.71632 32.4293 4.45879 30.1852 2.86098C27.9411 1.26317 25.2548 0.404541 22.5001 0.404541C19.7453 0.404541 17.059 1.26317 14.8149 2.86098C12.5708 4.45879 10.8806 6.71632 9.97927 9.3195C9.07798 11.9227 9.01048 14.7421 9.78615 17.3854C10.5618 20.0287 12.1421 22.3646 14.3071 24.0679C10.5973 25.5542 7.36035 28.0194 4.94136 31.2007C2.52236 34.3819 1.01201 38.16 0.571304 42.1321C0.539403 42.4221 0.564936 42.7155 0.646443 42.9957C0.72795 43.2758 0.863836 43.5372 1.04634 43.7648C1.41493 44.2245 1.95103 44.5189 2.53672 44.5833C3.12241 44.6478 3.7097 44.4769 4.1694 44.1083C4.6291 43.7397 4.92355 43.2036 4.98797 42.6179C5.47289 38.3011 7.53128 34.3142 10.7699 31.419C14.0085 28.5238 18.2002 26.9234 22.5442 26.9234C26.8882 26.9234 31.08 28.5238 34.3186 31.419C37.5572 34.3142 39.6156 38.3011 40.1005 42.6179C40.1605 43.1606 40.4194 43.6617 40.8272 44.0247C41.2351 44.3876 41.7629 44.5867 42.3088 44.5833H42.5517C43.1306 44.5167 43.6597 44.224 44.0237 43.769C44.3877 43.314 44.5571 42.7336 44.4951 42.1542C44.0523 38.1708 42.5338 34.383 40.1023 31.1969C37.6709 28.0107 34.4182 25.5464 30.693 24.0679ZM22.5001 22.5C20.753 22.5 19.0452 21.9819 17.5925 21.0113C16.1399 20.0407 15.0077 18.6611 14.3391 17.0471C13.6705 15.433 13.4956 13.6569 13.8365 11.9434C14.1773 10.2299 15.0186 8.65593 16.2539 7.42057C17.4893 6.1852 19.0633 5.34391 20.7768 5.00307C22.4903 4.66224 24.2663 4.83717 25.8804 5.50574C27.4945 6.17432 28.8741 7.30651 29.8447 8.75914C30.8153 10.2118 31.3334 11.9196 31.3334 13.6667C31.3334 16.0094 30.4027 18.2562 28.7462 19.9128C27.0896 21.5694 24.8428 22.5 22.5001 22.5Z" fill="black"/>
</svg>
