<svg width="32" height="33" viewBox="0 0 32 33" fill="none" xmlns="http://www.w3.org/2000/svg">
<path d="M27.3377 6.33366C24.3295 3.41764 20.3294 1.81086 16.0675 1.80908C7.2854 1.80908 0.138499 8.72984 0.134983 17.2364C0.13396 19.9556 0.867424 22.6099 2.26154 24.9496L0.0012207 32.9442L8.44726 30.7989C10.7743 32.0283 13.3944 32.6761 16.0607 32.6771H16.0675H16.0675C24.8483 32.6771 31.9963 25.7551 32 17.2489C32.0014 13.1262 30.3456 9.24988 27.3377 6.33366ZM16.0675 30.0714H16.0624C13.6858 30.0701 11.3552 29.4521 9.32235 28.2836L8.83857 28.0058L3.82652 29.2787L5.16467 24.5469L4.84947 24.0617C3.52378 22.0199 2.82393 19.6603 2.82493 17.2374C2.82784 10.167 8.76807 4.41492 16.0726 4.41492C19.6098 4.41634 22.9344 5.75191 25.4347 8.17561C27.9349 10.5993 29.3109 13.8212 29.3098 17.2478C29.3067 24.3185 23.3663 30.0714 16.0675 30.0714Z" fill="#E0E0E0"/>
<path d="M0.780518 31.5213L2.93759 23.8919C1.60681 21.6591 0.906986 19.1258 0.907826 16.5314C0.911315 8.41351 7.73181 1.80908 16.1121 1.80908C20.1794 1.81086 23.9969 3.34416 26.8671 6.12705C29.7379 8.90991 31.3179 12.6089 31.3163 16.5429C31.3128 24.6609 24.4919 31.2659 16.1127 31.2659C16.1121 31.2659 16.1131 31.2659 16.1127 31.2659H16.1059C13.5614 31.2652 11.0612 30.6464 8.84059 29.4741L0.780518 31.5213Z" fill="url(#paint0_linear_83_1089)"/>
<path fill-rule="evenodd" clip-rule="evenodd" d="M12.0665 9.61192C11.7717 8.9771 11.4614 8.9644 11.181 8.95329C10.9516 8.94376 10.689 8.94434 10.4268 8.94434C10.1644 8.94434 9.73807 9.03986 9.37751 9.4213C9.01673 9.80275 8 10.7249 8 12.6003C8 14.4759 9.41031 16.2882 9.60688 16.5428C9.80367 16.7969 12.3293 20.7686 16.3292 22.2965C19.6535 23.5664 20.3299 23.3138 21.0515 23.2502C21.773 23.1867 23.3797 22.3283 23.7077 21.4381C24.0357 20.5482 24.0357 19.7853 23.9373 19.6258C23.8389 19.467 23.5765 19.3717 23.1829 19.1811C22.7893 18.9904 20.8547 18.0681 20.4939 17.941C20.1331 17.814 19.8708 17.7504 19.6084 18.1321C19.346 18.5133 18.5922 19.3717 18.3627 19.6258C18.1331 19.8806 17.9035 19.9124 17.5099 19.7217C17.1163 19.5305 15.8489 19.1284 14.3454 17.8298C13.1755 16.8195 12.3857 15.5717 12.1561 15.1901C11.9265 14.8089 12.1315 14.6024 12.3289 14.4123C12.5056 14.2416 12.7225 13.9674 12.9193 13.7448C13.1156 13.5222 13.1812 13.3633 13.3124 13.1092C13.4436 12.8546 13.378 12.632 13.2796 12.4414C13.1812 12.2508 12.4164 10.3657 12.0665 9.61192Z" fill="white"/>
<path d="M27.0227 5.41699C24.049 2.53444 20.0948 0.94614 15.8819 0.944336C7.20056 0.944336 0.135704 7.78564 0.132214 16.1946C0.131191 18.8826 0.856232 21.5064 2.23434 23.8192L0 31.722L8.34909 29.6014C10.6494 30.8166 13.2394 31.457 15.8752 31.4579H15.8818H15.8819C24.5619 31.4579 31.6277 24.6154 31.6314 16.2069C31.6329 12.1316 29.9961 8.29973 27.0227 5.41699ZM15.8819 28.8822H15.8768C13.5275 28.881 11.2236 28.27 9.21414 27.115L8.73589 26.8404L3.78138 28.0987L5.10415 23.4211L4.79257 22.9416C3.4821 20.9232 2.79028 18.5907 2.7913 16.1956C2.79416 9.20637 8.6662 3.52031 15.8869 3.52031C19.3835 3.52171 22.6699 4.84195 25.1416 7.23782C27.6131 9.6337 28.9732 12.8186 28.9722 16.2059C28.9691 23.1953 23.0968 28.8822 15.8819 28.8822Z" fill="white"/>
<defs>
<linearGradient id="paint0_linear_83_1089" x1="16.0484" y1="31.5213" x2="16.0484" y2="1.80913" gradientUnits="userSpaceOnUse">
<stop stop-color="#20B038"/>
<stop offset="1" stop-color="#60D66A"/>
</linearGradient>
</defs>
</svg>
