<svg width="30" height="30" viewBox="0 0 30 30" fill="none" xmlns="http://www.w3.org/2000/svg">
<path d="M25.6291 5.05261C22.8089 2.31885 19.0588 0.812489 15.0633 0.810822C6.83008 0.810822 0.129858 7.29903 0.126562 15.274C0.125603 17.8232 0.813225 20.3116 2.12021 22.5051L0.00115967 30L7.91932 27.9888C10.1009 29.1413 12.5573 29.7486 15.0569 29.7496H15.0633H15.0633C23.2953 29.7496 29.9965 23.2602 30 15.2857C30.0014 11.4207 28.449 7.78657 25.6291 5.05261ZM15.0633 27.3067H15.0585C12.8304 27.3056 10.6455 26.7261 8.73972 25.6307L8.28618 25.3703L3.58738 26.5636L4.84189 22.1275L4.54639 21.6727C3.30356 19.7585 2.64745 17.5464 2.64838 15.2749C2.65111 8.64639 8.22008 3.25379 15.068 3.25379C18.3842 3.25513 21.501 4.50722 23.8451 6.77944C26.189 9.05164 27.4789 12.0722 27.478 15.2847C27.475 21.9134 21.9059 27.3067 15.0633 27.3067Z" fill="#E0E0E0"/>
<path d="M0.73172 28.666L2.75397 21.5135C1.50637 19.4202 0.850284 17.0453 0.851071 14.613C0.854343 7.00247 7.24856 0.810822 15.1051 0.810822C18.9182 0.812489 22.4971 2.24996 25.1879 4.85892C27.8793 7.46785 29.3606 10.9357 29.359 14.6238C29.3557 22.2344 22.9611 28.4266 15.1056 28.4266C15.1051 28.4266 15.106 28.4266 15.1056 28.4266H15.0993C12.7138 28.4259 10.3698 27.8458 8.28804 26.7468L0.73172 28.666Z" fill="url(#paint0_linear_15_4)"/>
<path fill-rule="evenodd" clip-rule="evenodd" d="M11.3721 9.13366C11.0958 8.53852 10.8048 8.5266 10.5419 8.51619C10.3269 8.50726 10.0807 8.5078 9.83493 8.5078C9.58895 8.5078 9.18923 8.59735 8.8512 8.95495C8.51297 9.31256 7.55978 10.177 7.55978 11.9353C7.55978 13.6937 8.88195 15.3927 9.06624 15.6313C9.25072 15.8696 11.6185 19.593 15.3684 21.0255C18.4849 22.2159 19.1191 21.9791 19.7955 21.9196C20.472 21.86 21.9783 21.0553 22.2857 20.2207C22.5932 19.3864 22.5932 18.6712 22.501 18.5217C22.4087 18.3728 22.1627 18.2834 21.7938 18.1047C21.4248 17.926 19.6111 17.0613 19.2728 16.9422C18.9346 16.8231 18.6886 16.7635 18.4426 17.1213C18.1967 17.4787 17.49 18.2834 17.2748 18.5217C17.0595 18.7605 16.8443 18.7903 16.4753 18.6116C16.1064 18.4324 14.9181 18.0554 13.5086 16.8379C12.4118 15.8908 11.6713 14.721 11.4561 14.3632C11.2409 14.0058 11.433 13.8122 11.6181 13.634C11.7838 13.474 11.9871 13.2169 12.1716 13.0082C12.3557 12.7995 12.4172 12.6506 12.5402 12.4123C12.6632 12.1737 12.6017 11.965 12.5094 11.7863C12.4172 11.6076 11.7002 9.84029 11.3721 9.13366Z" fill="white"/>
<path d="M25.3338 4.19311C22.5459 1.49073 18.8389 0.00169176 14.8893 0C6.75052 0 0.127223 6.41372 0.123951 14.2971C0.122992 16.8171 0.802718 19.2769 2.0947 21.4452L0 28.8541L7.82727 26.866C9.98386 28.0052 12.412 28.6056 14.883 28.6065H14.8892H14.8893C23.0267 28.6065 29.651 22.1917 29.6545 14.3086C29.6558 10.4881 28.1213 6.89568 25.3338 4.19311ZM14.8893 26.1917H14.8845C12.682 26.1906 10.5221 25.6178 8.63825 24.535L8.1899 24.2775L3.54504 25.4572L4.78514 21.072L4.49304 20.6224C3.26447 18.7302 2.61589 16.5434 2.61685 14.2981C2.61953 7.74566 8.12456 2.41497 14.8939 2.41497C18.1721 2.41629 21.253 3.65401 23.5702 5.90014C25.8873 8.14627 27.1624 11.1322 27.1614 14.3078C27.1585 20.8603 21.6533 26.1917 14.8893 26.1917Z" fill="white"/>
<defs>
<linearGradient id="paint0_linear_15_4" x1="15.0454" y1="28.666" x2="15.0454" y2="0.810868" gradientUnits="userSpaceOnUse">
<stop stop-color="#20B038"/>
<stop offset="1" stop-color="#60D66A"/>
</linearGradient>
</defs>
</svg>
